<?xml version="1.0" encoding="iso-8859-1"?>
<!-- Generator: Adobe Illustrator 19.0.0, SVG Export Plug-In . SVG Version: 6.00 Build 0)  -->
<svg version="1.1" id="Capa_1" xmlns="http://www.w3.org/2000/svg" xmlns:xlink="http://www.w3.org/1999/xlink" x="0px" y="0px"
	 viewBox="0 0 512 512" style="enable-background:new 0 0 512 512;" xml:space="preserve">
<g>
	<g>
		<path fill = "rgba(255, 255, 255, 0.9)" d="M301,0c-17.901,0-33.997,7.881-45,20.354C244.997,7.881,228.901,0,211,0H0v482h196.021c14.064,18.696,36.317,30,59.979,30
			s45.914-11.304,59.979-30H512V0H301z M30,30h181c16.542,0,30,13.458,30,30v280.07c-8.832-5.122-19.076-8.07-30-8.07H30V30z
			 M30,362h181c16.542,0,30,13.458,30,30v8.07c-8.832-5.122-19.076-8.07-30-8.07H30V362z M482,452H299.303l-4.332,7.486
			C286.934,473.373,272.001,482,256,482c-16.001,0-30.934-8.627-38.971-22.514L212.697,452H30v-30h181c16.542,0,30,13.458,30,30h30
			c0-16.542,13.458-30,30-30h181V452z M482,392H301c-10.924,0-21.168,2.947-30,8.07V392c0-16.542,13.458-30,30-30h181V392z M482,332
			H301c-10.924,0-21.168,2.947-30,8.07V60c0-16.542,13.458-30,30-30h181V332z"/>
	</g>
</g>
<g>
	<g>
		<path fill = "rgba(255, 255, 255, 0.9)" d="M60,60v242h151V60H60z M90,90h30.5v40.667H90V90z M181,272H90V160.667h91V272z M181,130.667h-30.5V90H181V130.667z"/>
	</g>
</g>
<g>
	<g>
		<path fill = "rgba(255, 255, 255, 0.9)" d="M301,60v242h151V60H301z M361.5,272H331v-40.667h30.5V272z M422,272h-30.5v-40.667H422V272z M422,201.333h-91v-40.666h91
			V201.333z M422,130.667h-91V90h91V130.667z"/>
	</g>
</g>
<g>
</g>
<g>
</g>
<g>
</g>
<g>
</g>
<g>
</g>
<g>
</g>
<g>
</g>
<g>
</g>
<g>
</g>
<g>
</g>
<g>
</g>
<g>
</g>
<g>
</g>
<g>
</g>
<g>
</g>
</svg>
